<?xml version="1.0" encoding="UTF-8"?>
<svg width="205px" height="40px" viewBox="0 0 205 40" version="1.1" xmlns="http://www.w3.org/2000/svg" xmlns:xlink="http://www.w3.org/1999/xlink">
    <!-- Generator: Sketch 53.2 (72643) - https://sketchapp.com -->
    <title>logo</title>
    <desc>Created with Sketch.</desc>
    <g id="Web" stroke="none" stroke-width="1" fill="none" fill-rule="evenodd">
        <g id="Главная" transform="translate(-52.000000, -56.000000)">
            <g id="logo" transform="translate(52.000000, 56.000000)">
                <path d="M14.1878036,11.0391131 C13.4070893,11.6646488 12.518875,11.9207202 11.5229821,11.8075059 C10.5272679,11.6939345 9.71744643,11.2446488 9.09333929,10.4592917 C8.46905357,9.67375594 8.213875,8.78268451 8.32744643,7.78572023 C8.44083929,6.7883988 8.88976786,5.97947023 9.67405357,5.35822023 C10.4583393,4.73732737 11.3481607,4.4833988 12.3442321,4.59697023 C13.3399464,4.71018451 14.1479821,5.15750594 14.7685179,5.93822023 C15.388875,6.71911308 15.642625,7.60804165 15.528875,8.60518451 C15.4154821,9.6021488 14.9681607,10.4135774 14.1878036,11.0391131 M18.3394107,3.09572023 C16.9342321,1.32732737 15.1074464,0.31500594 12.8586964,0.059113083 C10.610125,-0.196958346 8.60226786,0.378934512 6.83530357,1.78661308 C5.06833929,3.19393451 4.05691071,5.0233988 3.80066071,7.27482737 C3.54423214,9.52625594 4.11851786,11.5362559 5.523875,13.3048274 C6.92923214,15.0733988 8.75601786,16.0855417 11.0047679,16.3416131 C13.2533393,16.5975059 15.2610179,16.0216131 17.0281607,14.6142917 C18.7945893,13.2069702 19.8065536,11.3773274 20.0628036,9.1258988 C20.3192321,6.87411308 19.7447679,4.86447023 18.3394107,3.09572023" id="Fill-7" fill="#3C479C"></path>
                <path d="M45.558625,24.3212024 C46.4164821,26.3501309 46.429875,28.3822738 45.5996964,30.4174524 C45.3371964,31.0601309 45.0146964,31.6442381 44.6327321,32.1697738 C44.2475536,32.6929881 43.7891607,33.1767381 43.2563036,33.6213809 C41.5688036,35.0283452 39.6296964,35.6290595 37.4384464,35.4229881 C35.2471964,35.2172738 33.4493393,34.2654881 32.0455893,32.5678095 C30.6413036,30.8701309 30.0427321,28.9244167 30.2491607,26.7304881 C30.2841607,26.3594167 30.3525536,26.0028095 30.418625,25.6520952 C30.5889821,24.7497738 30.333625,24.1374524 30.333625,24.1374524 L29.116125,21.2108452 C29.116125,21.2108452 28.9950536,20.9262024 29.0977321,20.7817381 C29.2043393,20.6403095 29.5118393,20.6697738 29.5118393,20.6697738 L32.6663036,20.9481667 C32.6663036,20.9481667 33.3266607,21.0070952 34.1345179,20.5720952 C34.4482679,20.4029881 34.767375,20.2299524 35.1102321,20.0845952 C37.1370179,19.2253095 39.1704107,19.2090595 41.2113036,20.0363809 C43.2516607,20.8637024 44.7009464,22.2919167 45.558625,24.3212024 M42.7129107,15.8951309 C39.5413036,14.6485238 36.3896964,14.7097738 33.2582679,16.0776309 C33.0754107,16.1572738 32.8964821,16.2415595 32.719875,16.3265595 C32.1229107,16.6137024 31.554875,16.6217381 31.554875,16.6217381 L24.4916607,16.7033452 C24.2679107,16.7062024 24.0580893,16.8147738 23.9218393,16.9867381 L23.9218393,16.9863809 C23.9214821,16.9865595 23.9214821,16.9869167 23.921125,16.9872738 C23.921125,16.9874524 23.9207679,16.9878095 23.9204107,16.9879881 L23.9205893,16.9879881 C23.7982679,17.1701309 23.7584464,17.4031667 23.8230893,17.6176309 L25.8780893,24.3828095 C25.8780893,24.3828095 26.0420179,24.9278095 25.9488036,25.5840595 C25.921125,25.7783452 25.894875,25.9745952 25.8741607,26.1729881 C25.5170179,29.5745952 26.4104107,32.6010238 28.5554107,35.2517381 C30.6995179,37.9022738 33.4707679,39.4056667 36.8682679,39.7620952 C40.2657679,40.1185238 43.2882679,39.2229881 45.9364821,37.0747738 C46.803625,36.3715595 47.5455893,35.5995952 48.1670179,34.7619167 L48.1671964,34.7619167 C48.167375,34.7615595 48.1675536,34.7613809 48.1677321,34.7610238 C48.1677321,34.7610238 48.1680893,34.7604881 48.1684464,34.7603095 C48.7784464,33.9140595 49.2896964,32.9728095 49.697375,31.9329881 C50.9434464,28.7567381 50.8834464,25.6017381 49.5182679,22.4669167 C48.1530893,19.3320952 45.8846964,17.1412024 42.7129107,15.8951309" id="Fill-9" fill="#8BC53F"></path>
                <path d="M12.1223214,17.1406309 C15.4723214,17.3315238 18.2275,18.5075952 20.3864286,20.6695595 C22.6726786,22.9588452 23.8319643,25.7250952 23.8635714,28.9681309 L23.8635714,37.0243809 C23.8635714,37.9463452 23.6253571,38.6461667 23.1491071,39.1229524 C22.6726786,39.5999167 22.1008929,39.8381309 21.4344643,39.8381309 C20.7675,39.8381309 20.1957143,39.5999167 19.7196429,39.1229524 C19.2432143,38.6461667 19.0051786,37.9622381 19.0051786,37.0718809 L19.0051786,29.0158095 C19.0051786,28.8729524 19.0132143,28.7299167 19.02875,28.5863452 C18.93375,26.8377738 18.25125,25.3354524 16.9808929,24.0795595 C15.5994643,22.6967024 13.9321429,22.0052738 11.9794643,22.0052738 L11.8841071,22.0052738 C9.93125,22.0052738 8.26392857,22.6967024 6.88285714,24.0795595 C5.61285714,25.3354524 4.92964286,26.8377738 4.83446429,28.5863452 C4.85053571,28.7299167 4.85857143,28.8729524 4.85857143,29.0158095 L4.85857143,37.0718809 C4.85857143,37.9622381 4.62035714,38.6461667 4.14392857,39.1229524 C3.66767857,39.5999167 3.09589286,39.8381309 2.42928571,39.8381309 C1.76214286,39.8381309 1.19071429,39.5999167 0.714285714,39.1229524 C0.238214286,38.6461667 -2.84217094e-14,37.9463452 -2.84217094e-14,37.0243809 L-2.84217094e-14,28.9681309 C0.0317857143,25.7250952 1.19071429,22.9588452 3.47714286,20.6695595 C5.63660714,18.5075952 8.39142857,17.3315238 11.7410714,17.1406309 L12.1223214,17.1406309 Z" id="Fill-11" fill="#3C479C"></path>
                <path d="M82.2031071,39.0090059 C82.1436429,39.0540059 82.0836429,39.1065059 82.0241786,39.1657917 C81.5763214,39.6141845 81.0391786,39.8381131 80.4125714,39.8381131 C79.7857857,39.8381131 79.2488214,39.6141845 78.8013214,39.1657917 C78.3534643,38.7177559 78.1297143,38.1800774 78.1297143,37.5525774 L78.1297143,17.8493631 C78.1297143,17.2216845 78.3534643,16.6841845 78.8013214,16.2357917 C79.2488214,15.7875774 79.7857857,15.5636488 80.4125714,15.5636488 C81.0391786,15.5636488 81.5763214,15.7875774 82.0241786,16.2357917 C82.4715,16.6841845 82.6954286,17.2216845 82.6954286,17.8493631 L82.6954286,31.8175774 L95.3600714,16.8186488 C95.4648929,16.6097202 95.6065,16.4152559 95.7856071,16.2357917 C96.2331071,15.7875774 96.7700714,15.5636488 97.3968571,15.5636488 C98.0232857,15.5636488 98.5606071,15.7875774 99.0084643,16.2357917 C99.4556071,16.6841845 99.6798929,17.2216845 99.6798929,17.8493631 L99.6798929,37.5525774 C99.6798929,38.1800774 99.4556071,38.7177559 99.0084643,39.1657917 C98.5606071,39.6141845 98.0232857,39.8381131 97.3968571,39.8381131 C96.7700714,39.8381131 96.2331071,39.6141845 95.7856071,39.1657917 C95.33775,38.7177559 95.114,38.1800774 95.114,37.5525774 L95.114,23.7184702 L82.2031071,39.0090059 Z" id="Fill-19" fill="#3C479C"></path>
                <path d="M122.222696,39.9632917 C121.585196,39.9632917 121.046446,39.7236488 120.606089,39.2443631 C120.454839,39.0790059 120.333054,38.9057917 120.241804,38.7241845 L120.218946,38.7241845 L113.115018,23.5315059 L106.308946,38.4257917 L106.286089,38.4009702 C106.180375,38.5991845 106.051089,38.7807917 105.899304,38.9459702 C105.458768,39.4254345 104.630018,39.9632917 104.007161,39.9632917 C103.369839,39.9632917 102.831268,39.7193631 102.390554,39.2322202 C101.950732,38.7443631 101.730375,38.1622202 101.730375,37.4847202 C101.730375,36.9393631 101.875018,36.4600774 102.163054,36.0470417 L110.974661,16.7886488 C111.080911,16.4581131 111.255732,16.1691845 111.498411,15.9213274 C111.938768,15.4256131 112.477518,15.1777559 113.115018,15.1777559 C113.737696,15.1777559 114.268589,15.4256131 114.708768,15.9213274 C114.951804,16.1691845 115.126268,16.4500774 115.232518,16.7640059 L122.222696,31.7090059 L129.190196,16.7886488 C129.296446,16.4581131 129.471268,16.1691845 129.713768,15.9213274 C130.154482,15.4256131 130.693054,15.1777559 131.330375,15.1777559 C131.953054,15.1777559 132.483946,15.4256131 132.924304,15.9213274 C133.167339,16.1691845 133.341804,16.4500774 133.448232,16.7640059 L142.305018,36.0718631 C142.578411,36.4847202 142.715196,36.9557917 142.715196,37.4847202 C142.715196,38.1622202 142.491446,38.7443631 142.043411,39.2322202 C141.595732,39.7193631 141.060911,39.9632917 140.438232,39.9632917 C139.800732,39.9632917 138.963946,39.4254345 138.523589,38.9459702 C138.372339,38.7807917 138.250554,38.6072202 138.159304,38.4257917 L138.136446,38.4257917 L131.330375,23.5315059 L124.226446,38.7241845 L124.203589,38.6993631 C124.097875,38.8977559 123.968589,39.0790059 123.816804,39.2443631 C123.376268,39.7236488 122.845375,39.9632917 122.222696,39.9632917" id="Fill-21" fill="#3C479C"></path>
                <path d="M163.058411,27.5171131 L163.058411,28.5165774 C162.865732,30.2696131 162.121625,31.7949702 160.825911,33.0919345 C159.302875,34.6172917 157.464304,35.3799702 155.310732,35.3799702 C153.157161,35.3799702 151.322518,34.6172917 149.808411,33.0919345 C148.293768,31.5665774 147.536625,29.7260417 147.536625,27.5699702 C147.536625,25.4133631 148.293768,23.5772917 149.808411,22.0606845 C151.322518,20.5444345 153.157161,19.7860417 155.310732,19.7860417 C157.464304,19.7860417 159.302875,20.5487202 160.825911,22.0737202 C162.226804,23.4588988 162.979482,25.1155059 163.084661,27.0438988 C163.066982,27.2017559 163.058411,27.3594345 163.058411,27.5171131 M164.048946,18.8462202 C161.639304,16.4337202 158.726625,15.2274702 155.310911,15.2274702 C151.894661,15.2274702 148.981804,16.4337202 146.572518,18.8462202 C144.162518,21.2587202 142.958054,24.1747917 142.958054,27.5955059 C142.958054,31.0158631 144.162518,33.9324702 146.572518,36.3447917 C148.981804,38.7574702 151.894661,39.9631845 155.310911,39.9631845 C158.066446,39.9631845 160.500554,39.1699702 162.613411,37.5838988 C162.613411,38.5096131 162.860732,39.1372917 163.356089,39.4676488 C163.850911,39.7981845 164.445018,39.9631845 165.138232,39.9631845 C165.831446,39.9631845 166.425554,39.7981845 166.920732,39.4676488 C167.415732,39.1372917 167.663054,38.4930059 167.663054,37.5344345 L167.663054,27.4713988 C167.630018,24.1005059 166.425554,21.2256845 164.048946,18.8462202" id="Fill-23" fill="#3C479C"></path>
                <path d="M197.455732,33.0914881 C195.940911,34.6164881 194.107339,35.3791667 191.953946,35.3791667 C189.800732,35.3791667 187.962161,34.6164881 186.439304,33.0914881 C184.915911,31.5664881 184.154482,29.7259524 184.154482,27.5700595 C184.154482,25.4138095 184.915911,23.5777381 186.439304,22.0613095 C187.962161,20.5452381 189.800732,19.7866667 191.953946,19.7866667 C194.107339,19.7866667 195.940911,20.5452381 197.455732,22.0613095 C198.970018,23.5777381 199.727339,25.4138095 199.727339,27.5700595 C199.727339,29.7259524 198.970018,31.5664881 197.455732,33.0914881 M200.691625,18.8463095 C198.281982,16.4336309 195.369304,15.2272024 191.953232,15.2272024 C188.537339,15.2272024 185.624125,16.4336309 183.215018,18.8463095 C181.441446,20.6218452 180.323054,22.6713095 179.854839,24.9927381 L176.213768,24.9927381 L176.213768,17.6068452 C176.213768,16.9127381 175.966268,16.3179167 175.471089,15.8222024 C174.976268,15.3266667 174.382161,15.0784524 173.688946,15.0784524 C172.995911,15.0784524 172.401804,15.3266667 171.906625,15.8222024 C171.411804,16.3179167 171.163946,16.9127381 171.163946,17.6068452 L171.163946,37.4352381 C171.163946,38.1293452 171.411804,38.7241667 171.906625,39.2197024 C172.401804,39.7155952 172.995911,39.9632738 173.688946,39.9632738 C174.382161,39.9632738 174.976268,39.7155952 175.471089,39.2197024 C175.966268,38.7241667 176.213768,38.1293452 176.213768,37.4352381 L176.213768,30.0488095 L179.823589,30.0488095 C180.273054,32.4322024 181.403232,34.5311309 183.215018,36.3445238 C185.624125,38.7572024 188.537339,39.9632738 191.953232,39.9632738 C195.369304,39.9632738 198.281982,38.7572024 200.691625,36.3445238 C203.100911,33.9325595 204.305732,31.0155952 204.305732,27.5955952 C204.305732,24.1748809 203.100911,21.2588095 200.691625,18.8463095" id="Fill-25" fill="#3C479C"></path>
                <path d="M73.5900893,16.2783809 C73.1425893,15.8299881 72.605625,15.6060595 71.9788393,15.6060595 C71.3522321,15.6060595 70.8150893,15.8299881 70.3672321,16.2783809 C69.9197321,16.7265952 69.6958036,17.2642738 69.6958036,17.8915952 L69.6958036,25.4362381 L63.0115179,25.4362381 L60.2209821,25.4362381 L57.4911607,25.4362381 L57.4911607,17.8915952 C57.4911607,17.2642738 57.2675893,16.7265952 56.8197321,16.2783809 C56.3720536,15.8299881 55.8352679,15.6060595 55.2083036,15.6060595 C54.581875,15.6060595 54.0447321,15.8299881 53.596875,16.2783809 C53.1491964,16.7265952 52.9252679,17.2642738 52.9252679,17.8915952 L52.9252679,29.2898095 L52.9252679,32.8333809 L52.9252679,37.5524881 C52.9252679,38.1801667 53.1491964,38.7176667 53.596875,39.1658809 C54.044375,39.6142738 54.5815179,39.8382024 55.2083036,39.8382024 C55.8349107,39.8382024 56.371875,39.6142738 56.8197321,39.1658809 C57.2672321,38.7176667 57.4911607,38.1801667 57.4911607,37.5524881 L57.4911607,32.8333809 L57.4911607,30.0078452 L60.2209821,30.0078452 L63.0115179,30.0078452 L69.6958036,30.0078452 L69.6958036,32.8333809 L69.6958036,37.5524881 C69.6958036,38.1801667 69.9197321,38.7176667 70.3672321,39.1658809 C70.8147321,39.6142738 71.3520536,39.8382024 71.9788393,39.8382024 C72.6052679,39.8382024 73.1422321,39.6142738 73.5900893,39.1658809 C74.0375893,38.7176667 74.2615179,38.1801667 74.2615179,37.5524881 L74.2615179,32.8333809 L74.2615179,29.2898095 L74.2615179,17.8915952 C74.2615179,17.2642738 74.0379464,16.7265952 73.5900893,16.2783809" id="Fill-27" fill="#3C479C"></path>
            </g>
        </g>
    </g>
</svg>